<svg width="21" height="21" viewBox="0 0 21 21" fill="none" xmlns="http://www.w3.org/2000/svg">
<path d="M10.392 0.778259C8.24327 0.778248 6.55939 0.778238 5.24555 0.954263C3.90077 1.13443 2.83962 1.51042 2.00671 2.34042C1.17381 3.17042 0.796508 4.22788 0.615706 5.56797C0.439066 6.87723 0.439075 8.55524 0.439087 10.6964V10.8029C0.439075 12.9441 0.439066 14.6221 0.615706 15.9314C0.796508 17.2715 1.17381 18.3289 2.00671 19.1589C2.83962 19.9889 3.90077 20.3649 5.24555 20.5451C6.55939 20.7211 8.24328 20.7211 10.392 20.7211H10.4988C12.6475 20.7211 14.3314 20.7211 15.6452 20.5451C16.99 20.3649 18.0511 19.9889 18.884 19.1589C19.7169 18.3289 20.0942 17.2715 20.275 15.9314C20.4517 14.6221 20.4517 12.9441 20.4517 10.8029V9.35831C20.4517 8.9741 20.1391 8.66263 19.7536 8.66263C19.368 8.66263 19.0554 8.9741 19.0554 9.35831V10.7497C19.0554 12.9556 19.054 14.5401 18.8913 15.746C18.7313 16.9318 18.427 17.6467 17.8968 18.1751C17.3665 18.7035 16.6491 19.0067 15.4592 19.1661C14.2491 19.3282 12.6591 19.3297 10.4454 19.3297C8.23168 19.3297 6.64164 19.3282 5.4316 19.1661C4.24164 19.0067 3.52424 18.7035 2.99399 18.1751C2.46375 17.6467 2.15947 16.9318 1.99948 15.746C1.8368 14.5401 1.83531 12.9556 1.83531 10.7497C1.83531 8.54369 1.8368 6.95919 1.99948 5.75337C2.15947 4.56756 2.46375 3.85266 2.99399 3.32426C3.52424 2.79586 4.24164 2.49264 5.4316 2.33322C6.64164 2.1711 8.23168 2.16962 10.4454 2.16962H11.8416C12.2272 2.16962 12.5397 1.85815 12.5397 1.47394C12.5397 1.08973 12.2272 0.778259 11.8416 0.778259H10.392Z" fill="#0043FF"/>
<path fill-rule="evenodd" clip-rule="evenodd" d="M16.9611 0.778259C15.0333 0.778259 13.4705 2.33559 13.4705 4.25666C13.4705 6.17772 15.0333 7.73506 16.9611 7.73506C18.8889 7.73506 20.4517 6.17772 20.4517 4.25666C20.4517 2.33559 18.8889 0.778259 16.9611 0.778259ZM14.8668 4.25666C14.8668 3.10402 15.8044 2.16962 16.9611 2.16962C18.1178 2.16962 19.0554 3.10402 19.0554 4.25666C19.0554 5.4093 18.1178 6.3437 16.9611 6.3437C15.8044 6.3437 14.8668 5.4093 14.8668 4.25666Z" fill="#0043FF"/>
<path d="M5.09317 12.6048C5.09317 12.2206 5.40573 11.9091 5.79129 11.9091H14.1686C14.5542 11.9091 14.8668 12.2206 14.8668 12.6048C14.8668 12.989 14.5542 13.3005 14.1686 13.3005H5.79129C5.40573 13.3005 5.09317 12.989 5.09317 12.6048Z" fill="#0043FF"/>
<path d="M5.79129 15.1556C5.40573 15.1556 5.09317 15.4671 5.09317 15.8513C5.09317 16.2355 5.40573 16.547 5.79129 16.547H11.3762C11.7618 16.547 12.0743 16.2355 12.0743 15.8513C12.0743 15.4671 11.7618 15.1556 11.3762 15.1556H5.79129Z" fill="#0043FF"/>
</svg>
