<svg width="28" height="28" viewBox="0 0 28 28" fill="none" xmlns="http://www.w3.org/2000/svg">
<g clip-path="url(#clip0_51_1461)">
<path fill-rule="evenodd" clip-rule="evenodd" d="M12.7218 2.8756C12.999 2.8756 13.2216 3.0996 13.2216 3.3754C13.2216 3.4006 13.2118 3.423 13.2076 3.4482H13.2216V14.3052C13.2216 14.581 13.4456 14.805 13.7214 14.805H24.6134C24.8878 14.805 25.1118 15.029 25.1118 15.3048L25.109 15.3188L25.1118 15.4378C25.1118 22.3748 19.4908 28 12.5552 28C5.6196 28 0 22.3748 0 15.4378C0 8.5008 5.621 2.8756 12.5552 2.8756L12.6896 2.8784C12.7008 2.8812 12.7106 2.8756 12.7218 2.8756ZM15.582 0C22.4098 0.07 27.93 5.5944 28.0014 12.4264C28.0014 12.7022 27.7774 12.9262 27.5016 12.9262C27.4764 12.9262 27.454 12.915 27.4288 12.9122V12.9262H15.582C15.4494 12.9262 15.3223 12.8735 15.2286 12.7798C15.1349 12.6861 15.0822 12.559 15.0822 12.4264V0.574H15.0962C15.0934 0.5488 15.0822 0.5264 15.0822 0.5012C15.0822 0.2254 15.3062 0.0014 15.582 0.0014" fill="#3354F4"/>
</g>
<defs>
<clipPath id="clip0_51_1461">
<rect width="28" height="28" fill="white"/>
</clipPath>
</defs>
</svg>
