<svg width="28" height="28" viewBox="0 0 28 28" fill="none" xmlns="http://www.w3.org/2000/svg">
<path d="M6.19729 12.5557C9.60162 6.51817 11.3038 3.5 14 3.5C16.6961 3.5 18.3983 6.51817 21.8026 12.5557L22.2273 13.307C25.0565 18.3237 26.4716 20.832 25.193 22.666C23.9143 24.5 20.7503 24.5 14.4246 24.5H13.5753C7.24962 24.5 4.08562 24.5 2.80696 22.666C1.52829 20.832 2.94346 18.3237 5.77262 13.307L6.19729 12.5557Z" stroke="#FF1919" stroke-width="1.5"/>
<path d="M14 9.33331V15.1666" stroke="#FF1919" stroke-width="1.5" stroke-linecap="round"/>
<path d="M13.9999 19.8333C14.6443 19.8333 15.1666 19.311 15.1666 18.6667C15.1666 18.0223 14.6443 17.5 13.9999 17.5C13.3556 17.5 12.8333 18.0223 12.8333 18.6667C12.8333 19.311 13.3556 19.8333 13.9999 19.8333Z" fill="#FF1919"/>
</svg>
