<svg width="24" height="24" viewBox="0 0 24 24" fill="none" xmlns="http://www.w3.org/2000/svg">
<path d="M4 17C3.45 17 2.97933 16.8043 2.588 16.413C2.19667 16.0216 2.00067 15.5506 2 15V7.14997C2 6.89997 2.071 6.65431 2.213 6.41297C2.355 6.17164 2.55067 5.98397 2.8 5.84997L9.6 2.44997C9.88333 2.31664 10.1833 2.24564 10.5 2.23697C10.8167 2.22831 11.1167 2.29931 11.4 2.44997L18.05 5.84997C18.25 5.94997 18.421 6.10831 18.563 6.32497C18.705 6.54164 18.8007 6.76664 18.85 6.99997H15.925L10.5 4.24997L4 7.47497V17ZM7 21C6.45 21 5.97933 20.8043 5.588 20.413C5.19667 20.0216 5.00067 19.5506 5 19V9.99997C5 9.44997 5.196 8.97931 5.588 8.58797C5.98 8.19664 6.45067 8.00064 7 7.99997H20C20.55 7.99997 21.021 8.19597 21.413 8.58797C21.805 8.97997 22.0007 9.45064 22 9.99997V19C22 19.55 21.8043 20.021 21.413 20.413C21.0217 20.805 20.5507 21.0006 20 21H7ZM12.575 14.875L7 12V19H20V12L14.425 14.875C14.1417 15.025 13.8333 15.1 13.5 15.1C13.1667 15.1 12.8583 15.025 12.575 14.875ZM13.5 13.35L20 9.99997H7L13.5 13.35Z" fill="#0043FF"/>
</svg>
